<?xml version="1.0" encoding="UTF-8" standalone="no"?>
<!-- Created with Inkscape (http://www.inkscape.org/) -->

<svg
   xmlns:dc="http://purl.org/dc/elements/1.1/"
   xmlns:cc="http://creativecommons.org/ns#"
   xmlns:rdf="http://www.w3.org/1999/02/22-rdf-syntax-ns#"
   xmlns:svg="http://www.w3.org/2000/svg"
   xmlns="http://www.w3.org/2000/svg"
   xmlns:xlink="http://www.w3.org/1999/xlink"
   xmlns:sodipodi="http://sodipodi.sourceforge.net/DTD/sodipodi-0.dtd"
   xmlns:inkscape="http://www.inkscape.org/namespaces/inkscape"
   width="1920"
   height="1920"
   viewBox="0 0 507.99998 508.00001"
   version="1.1"
   id="svg8"
   sodipodi:docname="Sprites.svg"
   inkscape:version="0.92.1 r15371"
   inkscape:export-filename="C:\Users\ulysses\Documents\_Games\Only1Platform\Assets\Sprites\Sprites.png"
   inkscape:export-xdpi="96"
   inkscape:export-ydpi="96">
  <defs
     id="defs2">
    <linearGradient
       inkscape:collect="always"
       id="linearGradient4953">
      <stop
         style="stop-color:#000000;stop-opacity:1"
         offset="0"
         id="stop4949" />
      <stop
         style="stop-color:#c100ff;stop-opacity:0"
         offset="1"
         id="stop4951" />
    </linearGradient>
    <marker
       inkscape:stockid="Arrow1Lend"
       orient="auto"
       refY="0.0"
       refX="0.0"
       id="marker4883"
       style="overflow:visible;"
       inkscape:isstock="true">
      <path
         id="path4881"
         d="M 0.0,0.0 L 5.0,-5.0 L -12.5,0.0 L 5.0,5.0 L 0.0,0.0 z "
         style="fill-rule:evenodd;stroke:#8000d5;stroke-width:1pt;stroke-opacity:1;fill:#8000d5;fill-opacity:1"
         transform="scale(0.8) rotate(180) translate(12.5,0)" />
    </marker>
    <marker
       inkscape:stockid="Arrow1Lend"
       orient="auto"
       refY="0.0"
       refX="0.0"
       id="Arrow1Lend"
       style="overflow:visible;"
       inkscape:isstock="true">
      <path
         id="path4848"
         d="M 0.0,0.0 L 5.0,-5.0 L -12.5,0.0 L 5.0,5.0 L 0.0,0.0 z "
         style="fill-rule:evenodd;stroke:#8000d5;stroke-width:1pt;stroke-opacity:1;fill:#8000d5;fill-opacity:1"
         transform="scale(0.8) rotate(180) translate(12.5,0)" />
    </marker>
    <marker
       inkscape:stockid="Arrow1Lstart"
       orient="auto"
       refY="0.0"
       refX="0.0"
       id="Arrow1Lstart"
       style="overflow:visible"
       inkscape:isstock="true">
      <path
         id="path4540"
         d="M 0.0,0.0 L 5.0,-5.0 L -12.5,0.0 L 5.0,5.0 L 0.0,0.0 z "
         style="fill-rule:evenodd;stroke:#8000d5;stroke-width:1pt;stroke-opacity:1;fill:#8000d5;fill-opacity:1"
         transform="scale(0.8) translate(12.5,0)" />
    </marker>
    <marker
       inkscape:stockid="Arrow2Lend"
       orient="auto"
       refY="0.0"
       refX="0.0"
       id="Arrow2Lend"
       style="overflow:visible;"
       inkscape:isstock="true">
      <path
         id="path4561"
         style="fill-rule:evenodd;stroke-width:0.625;stroke-linejoin:round;stroke:#8000d5;stroke-opacity:1;fill:#8000d5;fill-opacity:1"
         d="M 8.7185878,4.0337352 L -2.2072895,0.016013256 L 8.7185884,-4.0017078 C 6.9730900,-1.6296469 6.9831476,1.6157441 8.7185878,4.0337352 z "
         transform="scale(1.1) rotate(180) translate(1,0)" />
    </marker>
    <linearGradient
       id="linearGradient4563"
       inkscape:collect="always">
      <stop
         id="stop4559"
         offset="0"
         style="stop-color:#ffffff;stop-opacity:0.75294119" />
      <stop
         id="stop4561"
         offset="1"
         style="stop-color:#ffffff;stop-opacity:0;" />
    </linearGradient>
    <linearGradient
       inkscape:collect="always"
       xlink:href="#linearGradient4563"
       id="linearGradient4522"
       x1="127"
       y1="68.399994"
       x2="127"
       y2="17.599991"
       gradientUnits="userSpaceOnUse"
       gradientTransform="translate(-50.8,-93.133333)" />
    <linearGradient
       inkscape:collect="always"
       xlink:href="#linearGradient4563"
       id="linearGradient4567"
       gradientUnits="userSpaceOnUse"
       gradientTransform="matrix(1,0,0,-1,-50.8,94.466647)"
       x1="127"
       y1="68.399986"
       x2="127"
       y2="17.599991" />
    <radialGradient
       inkscape:collect="always"
       xlink:href="#linearGradient4953"
       id="radialGradient4955"
       cx="228.60002"
       cy="119.2"
       fx="228.60002"
       fy="119.2"
       r="76.199997"
       gradientUnits="userSpaceOnUse"
       gradientTransform="matrix(0.87921943,-0.03938638,0.03970724,0.88638196,-130.40593,19.220795)" />
  </defs>
  <sodipodi:namedview
     id="base"
     pagecolor="#ffffff"
     bordercolor="#666666"
     borderopacity="1.0"
     inkscape:pageopacity="0.0"
     inkscape:pageshadow="2"
     inkscape:zoom="1.4"
     inkscape:cx="368.04754"
     inkscape:cy="707.11973"
     inkscape:document-units="mm"
     inkscape:current-layer="layer1"
     showgrid="true"
     units="px"
     inkscape:pagecheckerboard="true"
     inkscape:snap-bbox="true"
     inkscape:bbox-paths="true"
     inkscape:snap-bbox-edge-midpoints="true"
     inkscape:bbox-nodes="true"
     inkscape:snap-bbox-midpoints="true"
     inkscape:window-width="2160"
     inkscape:window-height="1330"
     inkscape:window-x="-12"
     inkscape:window-y="-12"
     inkscape:window-maximized="1"
     inkscape:snap-center="true"
     gridtolerance="10"
     inkscape:snap-intersection-paths="true"
     inkscape:object-paths="true"
     inkscape:snap-smooth-nodes="true"
     inkscape:snap-midpoints="true"
     inkscape:snap-object-midpoints="true"
     inkscape:measure-start="0,0"
     inkscape:measure-end="0,0"
     inkscape:snap-global="true"
     inkscape:snap-nodes="true">
    <inkscape:grid
       type="xygrid"
       id="grid4485"
       spacingx="8.4666666"
       spacingy="8.4666666"
       empspacing="6" />
  </sodipodi:namedview>
  <metadata
     id="metadata5">
    <rdf:RDF>
      <cc:Work
         rdf:about="">
        <dc:format>image/svg+xml</dc:format>
        <dc:type
           rdf:resource="http://purl.org/dc/dcmitype/StillImage" />
        <dc:title />
      </cc:Work>
    </rdf:RDF>
  </metadata>
  <g
     inkscape:label="Layer 1"
     inkscape:groupmode="layer"
     id="layer1"
     transform="translate(0,211.00001)">
    <path
       style="color:#000000;font-style:normal;font-variant:normal;font-weight:normal;font-stretch:normal;font-size:medium;line-height:normal;font-family:sans-serif;font-variant-ligatures:normal;font-variant-position:normal;font-variant-caps:normal;font-variant-numeric:normal;font-variant-alternates:normal;font-feature-settings:normal;text-indent:0;text-align:start;text-decoration:none;text-decoration-line:none;text-decoration-style:solid;text-decoration-color:#000000;letter-spacing:normal;word-spacing:normal;text-transform:none;writing-mode:lr-tb;direction:ltr;text-orientation:mixed;dominant-baseline:auto;baseline-shift:baseline;text-anchor:start;white-space:normal;shape-padding:0;clip-rule:nonzero;display:inline;overflow:visible;visibility:visible;opacity:1;isolation:auto;mix-blend-mode:normal;color-interpolation:sRGB;color-interpolation-filters:linearRGB;solid-color:#000000;solid-opacity:1;vector-effect:none;fill:#ffffff;fill-opacity:1;fill-rule:nonzero;stroke:none;stroke-width:8.46666622;stroke-linecap:round;stroke-linejoin:round;stroke-miterlimit:4;stroke-dasharray:none;stroke-dashoffset:0;stroke-opacity:1;paint-order:normal;color-rendering:auto;image-rendering:auto;shape-rendering:auto;text-rendering:auto;enable-background:accumulate"
       d="m 61.412011,-67.066674 a 4.2337563,4.2337563 0 1 0 0,8.466667 H 192.58799 a 4.2337563,4.2337563 0 1 0 0,-8.466667 z m -0.0015,2.117183 H 192.58592 a 2.1171875,2.1171875 0 1 1 0,4.234368 H 61.410463 a 2.1171875,2.1171875 0 1 1 0,-4.234368 z"
       id="path4489"
       inkscape:connector-curvature="0" />
    <path
       style="opacity:1;fill:#ff3650;fill-opacity:1;stroke:none;stroke-width:4.23333311;stroke-linecap:round;stroke-linejoin:round;stroke-miterlimit:4;stroke-dasharray:none;stroke-dashoffset:0;stroke-opacity:1;paint-order:normal"
       d="m 203.2,-202.53334 h 33.86667 L 254,-185.60001 237.06667,-168.66667 H 203.2 Z"
       id="path4493"
       inkscape:connector-curvature="0" />
    <path
       style="opacity:1;fill:none;fill-opacity:1;stroke:#ffe100;stroke-width:4.23333311;stroke-linecap:round;stroke-linejoin:round;stroke-miterlimit:4;stroke-dasharray:none;stroke-dashoffset:0;stroke-opacity:1;paint-order:normal"
       d="M 388.43949,-167.63951 406.4,-185.60002"
       id="path4495"
       inkscape:connector-curvature="0" />
    <path
       style="opacity:1;fill:none;fill-opacity:1;stroke:#ffe100;stroke-width:4.23333311;stroke-linecap:round;stroke-linejoin:round;stroke-miterlimit:4;stroke-dasharray:none;stroke-dashoffset:0;stroke-opacity:1;paint-order:normal"
       d="m 406.4,-185.60002 -17.96051,-17.96051"
       id="path4499"
       inkscape:connector-curvature="0" />
    <path
       style="opacity:1;fill:none;fill-opacity:1;stroke:#ffe100;stroke-width:4.23333311;stroke-linecap:round;stroke-linejoin:round;stroke-miterlimit:4;stroke-dasharray:none;stroke-dashoffset:0;stroke-opacity:1;paint-order:normal"
       d="m 381,-185.60001 h 25.4"
       id="path4495-4"
       inkscape:connector-curvature="0"
       inkscape:transform-center-x="12.699994"
       inkscape:transform-center-y="6.8180195e-006" />
    <path
       style="opacity:1;fill:#00caff;fill-opacity:1;stroke:none;stroke-width:4.23333311;stroke-linecap:round;stroke-linejoin:round;stroke-miterlimit:4;stroke-dasharray:none;stroke-dashoffset:0;stroke-opacity:1;paint-order:normal"
       d="m 347.13334,-194.06668 a 8.4666658,8.4666658 0 0 1 8.46666,8.46667 8.4666658,8.4666658 0 0 1 -8.46666,8.46667 L 304.8,-185.60001 Z"
       id="path4516"
       inkscape:connector-curvature="0" />
    <path
       style="opacity:1;fill:none;fill-opacity:1;stroke:#ffe100;stroke-width:4.23333311;stroke-linecap:round;stroke-linejoin:round;stroke-miterlimit:4;stroke-dasharray:none;stroke-dashoffset:0;stroke-opacity:1;paint-order:normal"
       d="m 436.75966,-173.62633 11.97367,-11.97368"
       id="path4495-45"
       inkscape:connector-curvature="0"
       sodipodi:nodetypes="cc" />
    <path
       style="opacity:1;fill:none;fill-opacity:1;stroke:#ffe100;stroke-width:4.23333311;stroke-linecap:round;stroke-linejoin:round;stroke-miterlimit:4;stroke-dasharray:none;stroke-dashoffset:0;stroke-opacity:1;paint-order:normal"
       d="m 448.73333,-185.60001 -11.97368,-11.97368"
       id="path4499-1"
       inkscape:connector-curvature="0"
       sodipodi:nodetypes="cc" />
    <path
       style="opacity:1;fill:none;fill-opacity:1;stroke:#ffe100;stroke-width:4.23333311;stroke-linecap:round;stroke-linejoin:round;stroke-miterlimit:4;stroke-dasharray:none;stroke-dashoffset:0;stroke-opacity:1;paint-order:normal"
       d="m 431.8,-185.60001 h 16.93333"
       id="path4495-45-4"
       inkscape:connector-curvature="0"
       sodipodi:nodetypes="cc"
       inkscape:transform-center-x="8.466665" />
    <path
       inkscape:transform-center-y="-3.2400544"
       inkscape:transform-center-x="7.8221749"
       sodipodi:nodetypes="cc"
       inkscape:connector-curvature="0"
       id="path4560"
       d="m 433.08898,-192.08012 15.64435,6.48011"
       style="opacity:1;fill:none;fill-opacity:1;stroke:#ffe100;stroke-width:4.23333311;stroke-linecap:round;stroke-linejoin:round;stroke-miterlimit:4;stroke-dasharray:none;stroke-dashoffset:0;stroke-opacity:1;paint-order:normal" />
    <path
       style="opacity:1;fill:none;fill-opacity:1;stroke:#ffe100;stroke-width:4.23333311;stroke-linecap:round;stroke-linejoin:round;stroke-miterlimit:4;stroke-dasharray:none;stroke-dashoffset:0;stroke-opacity:1;paint-order:normal"
       d="m 433.08898,-179.11991 15.64435,-6.4801"
       id="path4562"
       inkscape:connector-curvature="0"
       sodipodi:nodetypes="cc"
       inkscape:transform-center-x="7.8221749"
       inkscape:transform-center-y="3.2400508" />
    <rect
       style="opacity:1;fill:#ffffff;fill-opacity:1;stroke:none;stroke-width:4.23333311;stroke-linecap:round;stroke-linejoin:round;stroke-miterlimit:4;stroke-dasharray:none;stroke-dashoffset:0;stroke-opacity:1;paint-order:normal"
       id="rect4564"
       width="50.799999"
       height="50.799999"
       x="1.8147523e-007"
       y="-160.20001" />
    <path
       style="opacity:1;fill:#ff3650;fill-opacity:1;stroke:none;stroke-width:4.23333311;stroke-linecap:round;stroke-linejoin:round;stroke-miterlimit:4;stroke-dasharray:none;stroke-dashoffset:0;stroke-opacity:1;paint-order:normal"
       d="m 262.46666,-194.06667 h 25.4 l 8.46667,8.46666 -8.46667,8.46667 h -25.4 v -16.93333"
       id="path4568"
       inkscape:connector-curvature="0" />
    <path
       style="opacity:1;fill:#00e926;fill-opacity:1;stroke:none;stroke-width:4.23333311;stroke-linecap:round;stroke-linejoin:round;stroke-miterlimit:4;stroke-dasharray:none;stroke-dashoffset:0;stroke-opacity:1;paint-order:normal"
       d="m 458.65265,-185.60001 5.98683,5.98684 17.96052,17.96051 17.96051,-17.96051 5.98683,-5.98684 -17.96051,-17.96051 -5.98683,5.98684 -5.98684,-5.98684 z"
       id="rect4572"
       inkscape:connector-curvature="0" />
    <rect
       style="opacity:1;fill:#ffffff;fill-opacity:1;stroke:none;stroke-width:4.23333311;stroke-linecap:round;stroke-linejoin:round;stroke-miterlimit:4;stroke-dasharray:none;stroke-dashoffset:0;stroke-opacity:1;paint-order:normal"
       id="rect4579"
       width="8.4666719"
       height="8.4666595"
       x="464.02206"
       y="201.54404"
       transform="rotate(-45)" />
    <path
       style="opacity:1;fill:none;fill-opacity:1;stroke:#ffffff;stroke-width:4.23333311;stroke-linecap:round;stroke-linejoin:round;stroke-miterlimit:4;stroke-dasharray:none;stroke-dashoffset:0;stroke-opacity:1;paint-order:normal"
       d="M 61.404712,-208.86196 192.59529,-77.671394"
       id="path4489-9"
       inkscape:connector-curvature="0"
       sodipodi:nodetypes="cc" />
    <rect
       style="opacity:1;fill:#ffffff;fill-opacity:1;stroke:none;stroke-width:4.23333311;stroke-linecap:round;stroke-linejoin:round;stroke-miterlimit:4;stroke-dasharray:none;stroke-dashoffset:0;stroke-opacity:1;paint-order:normal"
       id="rect4564-4"
       width="50.799999"
       height="50.799999"
       x="1.8146753e-007"
       y="-211" />
    <path
       style="opacity:1;fill:#ffc30d;fill-opacity:1;stroke:none;stroke-width:4.23333311;stroke-linecap:round;stroke-linejoin:round;stroke-miterlimit:4;stroke-dasharray:none;stroke-dashoffset:0;stroke-opacity:1;paint-order:normal"
       d="m 474.13331,-151.73334 a 16.933332,16.933332 0 0 1 14.64717,8.46667 h 10.75283 v 16.93333 h -10.75955 a 16.933332,16.933332 0 0 1 -14.64045,8.46666 16.933332,16.933332 0 0 1 -16.93333,-16.93333 16.933332,16.933332 0 0 1 16.93333,-16.93333 z"
       id="path4572"
       inkscape:connector-curvature="0" />
    <path
       sodipodi:type="star"
       style="opacity:1;fill:#6c6c6c;fill-opacity:1;stroke:none;stroke-width:4.23333311;stroke-linecap:round;stroke-linejoin:round;stroke-miterlimit:4;stroke-dasharray:none;stroke-dashoffset:0;stroke-opacity:1;paint-order:normal"
       id="path4581"
       sodipodi:sides="16"
       sodipodi:cx="-160.86666"
       sodipodi:cy="-261.80002"
       sodipodi:r1="38.846428"
       sodipodi:r2="51.795238"
       sodipodi:arg1="0.78539816"
       sodipodi:arg2="0.9817477"
       inkscape:flatsided="false"
       inkscape:rounded="0"
       inkscape:randomized="0"
       d="m -133.39808,-234.33145 1.30732,15.5976 -13.91001,-7.17675 -4.76113,14.91059 -10.10475,-11.95358 -10.10475,11.95358 -4.76114,-14.91059 -13.91001,7.17675 1.30732,-15.5976 -15.59759,1.30732 7.17675,-13.91 -14.91059,-4.76114 11.95358,-10.10475 -11.95358,-10.10475 14.91059,-4.76113 -7.17675,-13.91001 15.59759,1.30732 -1.30732,-15.5976 13.91001,7.17675 4.76114,-14.91059 10.10475,11.95358 10.10475,-11.95358 4.76113,14.91059 13.91001,-7.17675 -1.30732,15.5976 15.59759,-1.30732 -7.17674,13.91001 14.91058,4.76113 -11.95358,10.10475 11.95358,10.10475 -14.91058,4.76114 7.17674,13.91 z"
       inkscape:transform-center-x="-4.3885474e-006"
       inkscape:transform-center-y="-1.0192126e-005" />
    <path
       style="opacity:1;fill:#ffffff;fill-opacity:0.98705498;stroke:none;stroke-width:4.23333311;stroke-linecap:round;stroke-linejoin:round;stroke-miterlimit:4;stroke-dasharray:none;stroke-dashoffset:0;stroke-opacity:1;paint-order:normal"
       d="M -105.68214,59.933316 H -4.0821622 V 161.53333 l -16.9332998,-16.93332 -16.93335,16.93332 -16.93333,-16.93332 -16.93333,16.93332 -16.93332,-16.93332 -16.933348,16.93332 V 59.933316"
       id="path4583"
       inkscape:connector-curvature="0"
       sodipodi:nodetypes="cccccccccc" />
    <path
       style="opacity:1;fill:#23ce00;fill-opacity:0.98705498;stroke:none;stroke-width:4.23333311;stroke-linecap:round;stroke-linejoin:round;stroke-miterlimit:4;stroke-dasharray:none;stroke-dashoffset:0;stroke-opacity:1;paint-order:normal"
       d="m 427.56667,-79.766676 v 8.466667 h 8.46667 v -8.466667 H 444.5 v -8.466666 h -8.46666 z"
       id="rect4585"
       inkscape:connector-curvature="0"
       sodipodi:nodetypes="cccccccc" />
    <path
       style="opacity:1;fill:#00c420;fill-opacity:1;stroke:none;stroke-width:4.23333311;stroke-linecap:round;stroke-linejoin:round;stroke-miterlimit:4;stroke-dasharray:none;stroke-dashoffset:0;stroke-opacity:1;paint-order:normal"
       d="m 436.03333,-88.233347 v -8.46666 h -8.46667 v 8.46666 H 419.1 v 8.46667 h 8.46666 z"
       id="rect4585-0"
       inkscape:connector-curvature="0"
       sodipodi:nodetypes="cccccccc" />
    <path
       style="opacity:1;fill:url(#linearGradient4522);fill-opacity:1;stroke:none;stroke-width:4.23333311;stroke-linecap:round;stroke-linejoin:round;stroke-miterlimit:4;stroke-dasharray:none;stroke-dashoffset:0;stroke-opacity:1;paint-order:normal"
       d="m 76.199999,-41.666674 c -19.049999,0 -38.1,4.233333 -76.199999,42.333333 h 152.4 c -38.1,-38.1 -57.150001,-42.333333 -76.200001,-42.333333 z"
       id="path4514"
       inkscape:connector-curvature="0"
       sodipodi:nodetypes="sccs" />
    <path
       inkscape:connector-curvature="0"
       id="path4565"
       d="M 76.199999,42.999992 C 57.15,42.999992 38.099999,38.766659 0,0.666659 h 152.4 c -38.1,38.1 -57.150001,42.333333 -76.200001,42.333333 z"
       style="opacity:1;fill:url(#linearGradient4567);fill-opacity:1;stroke:none;stroke-width:4.23333311;stroke-linecap:round;stroke-linejoin:round;stroke-miterlimit:4;stroke-dasharray:none;stroke-dashoffset:0;stroke-opacity:1;paint-order:normal"
       sodipodi:nodetypes="sccs" />
    <rect
       style="opacity:1;fill:#ffffff;fill-opacity:1;stroke:none;stroke-width:4.23333311;stroke-linecap:round;stroke-linejoin:round;stroke-miterlimit:4;stroke-dasharray:none;stroke-dashoffset:0;stroke-opacity:1;paint-order:normal"
       id="rect4521"
       width="21.158136"
       height="25.4"
       x="262.46667"
       y="-45.900005" />
    <circle
       style="opacity:1;fill:#ffffff;fill-opacity:1;stroke:none;stroke-width:4.23333311;stroke-linecap:round;stroke-linejoin:round;stroke-miterlimit:4;stroke-dasharray:none;stroke-dashoffset:0;stroke-opacity:1;paint-order:normal"
       id="path4523"
       cx="283.63333"
       cy="-33.200008"
       r="12.7" />
    <rect
       style="opacity:1;fill:#ffffff;fill-opacity:1;stroke:none;stroke-width:4.23333311;stroke-linecap:round;stroke-linejoin:round;stroke-miterlimit:4;stroke-dasharray:none;stroke-dashoffset:0;stroke-opacity:1;paint-order:normal"
       id="rect4525"
       width="50.799999"
       height="50.799999"
       x="-2.0175104"
       y="-129.87984"
       transform="rotate(-45)"
       inkscape:export-xdpi="45.254845"
       inkscape:export-ydpi="45.254845" />
    <circle
       style="opacity:1;fill:#ffc30d;fill-opacity:1;stroke:none;stroke-width:4.23333311;stroke-linecap:round;stroke-linejoin:round;stroke-miterlimit:4;stroke-dasharray:none;stroke-dashoffset:0;stroke-opacity:1;paint-order:normal"
       id="path4517"
       cx="431.79999"
       cy="-134.80002"
       r="8.4666662" />
    <path
       style="opacity:1;fill:#1acf00;fill-opacity:1;stroke:none;stroke-width:4.23333263;stroke-linecap:round;stroke-linejoin:round;stroke-miterlimit:4;stroke-dasharray:none;stroke-dashoffset:0;stroke-opacity:1;paint-order:normal"
       d="m 474.13333,-100.93334 c -7.98242,0 -16.93333,7.581306 -16.93333,16.933326 0,9.352018 8.95091,16.933328 16.93333,16.933328 16.93334,-5e-6 33.86667,-16.933328 33.86667,-16.933328 0,0 -16.93333,-16.933316 -33.86667,-16.933326 z m 0,8.466666 a 8.4666713,8.4666574 0 0 1 8.46667,8.46666 8.4666713,8.4666574 0 0 1 -8.46667,8.466664 8.4666713,8.4666574 0 0 1 -8.46666,-8.466664 8.4666713,8.4666574 0 0 1 8.46666,-8.46666 z"
       id="path4516-7"
       inkscape:connector-curvature="0" />
    <rect
       style="opacity:1;fill:#0076e4;fill-opacity:1;stroke:none;stroke-width:4.23333311;stroke-linecap:round;stroke-linejoin:round;stroke-miterlimit:4;stroke-dasharray:none;stroke-dashoffset:0;stroke-opacity:1;paint-order:normal"
       id="rect4531"
       width="143.93333"
       height="8.4666662"
       x="364.06665"
       y="-37.433342" />
    <rect
       style="opacity:1;fill:#0076e4;fill-opacity:1;stroke:none;stroke-width:4.23333311;stroke-linecap:round;stroke-linejoin:round;stroke-miterlimit:4;stroke-dasharray:none;stroke-dashoffset:0;stroke-opacity:1;paint-order:normal"
       id="rect4533"
       width="25.399996"
       height="50.799999"
       x="482.59998"
       y="-58.600014"
       ry="8.385582" />
    <circle
       style="opacity:1;fill:#0076e4;fill-opacity:1;stroke:none;stroke-width:4.23333311;stroke-linecap:round;stroke-linejoin:round;stroke-miterlimit:4;stroke-dasharray:none;stroke-dashoffset:0;stroke-opacity:1;paint-order:normal"
       id="path4539"
       cx="364.06665"
       cy="-33.200012"
       r="8.4666662" />
    <ellipse
       style="opacity:1;fill:#af00cf;fill-opacity:1;stroke:none;stroke-width:4.23333311;stroke-linecap:round;stroke-linejoin:round;stroke-miterlimit:4;stroke-dasharray:none;stroke-dashoffset:0;stroke-opacity:1;paint-order:normal"
       id="path4541"
       cx="330.19998"
       cy="-33.200012"
       rx="16.93334"
       ry="16.933336" />
    <ellipse
       style="opacity:1;fill:#ffffff;fill-opacity:0.66666667;stroke:none;stroke-width:4.23333311;stroke-linecap:round;stroke-linejoin:round;stroke-miterlimit:4;stroke-dasharray:none;stroke-dashoffset:0;stroke-opacity:1;paint-order:normal"
       id="path4543"
       cx="-17.599991"
       cy="279.39999"
       transform="rotate(-90)"
       rx="8.4666653"
       ry="8.4666519" />
    <path
       style="opacity:1;fill:#ffffff;fill-opacity:1;stroke:none;stroke-width:4.23333311;stroke-linecap:round;stroke-linejoin:round;stroke-miterlimit:4;stroke-dasharray:none;stroke-dashoffset:0;stroke-opacity:1;paint-order:normal"
       d="m 364.06666,-7.8000074 a 50.800013,50.800002 0 0 0 -50.8,50.7999994 50.800013,50.800002 0 0 0 50.8,50.799999 50.800013,50.800002 0 0 0 50.8,-50.799999 50.800013,50.800002 0 0 0 -50.8,-50.7999994 z m 0,16.9333332 A 33.866677,33.866664 0 0 1 397.93333,42.999992 33.866677,33.866664 0 0 1 364.06666,76.866658 33.866677,33.866664 0 0 1 330.2,42.999992 33.866677,33.866664 0 0 1 364.06666,9.1333258 Z"
       id="path4547"
       inkscape:connector-curvature="0" />
    <path
       id="path4552"
       d="m 448.73333,-7.8000022 a 50.800013,50.800002 0 0 0 -50.8,50.7999992 50.800013,50.800002 0 0 0 50.8,50.799999 50.800013,50.800002 0 0 0 50.8,-50.799999 50.800013,50.800002 0 0 0 -50.8,-50.7999992 z m 0,16.9333332 A 33.866677,33.866664 0 0 1 482.6,42.999997 33.866677,33.866664 0 0 1 448.73333,76.866663 33.866677,33.866664 0 0 1 414.86667,42.999997 33.866677,33.866664 0 0 1 448.73333,9.133331 Z"
       style="opacity:1;fill:#ffffff;fill-opacity:1;stroke:none;stroke-width:4.23333311;stroke-linecap:round;stroke-linejoin:round;stroke-miterlimit:4;stroke-dasharray:none;stroke-dashoffset:0;stroke-opacity:1;paint-order:normal"
       inkscape:connector-curvature="0" />
    <path
       style="opacity:1;fill:#ffffff;fill-opacity:1;stroke:none;stroke-width:4.23333311;stroke-linecap:round;stroke-linejoin:round;stroke-miterlimit:4;stroke-dasharray:none;stroke-dashoffset:0;stroke-opacity:1;paint-order:normal"
       d="m 618.06666,26.066659 c -23.92275,1.085162 -50.79999,22.743927 -50.8,50.799999 10e-6,28.056072 26.87725,49.714842 50.8,50.800002 22.01962,0.99883 50.8,-42.333335 50.8,-42.333335 0,0 28.78037,43.332165 50.8,42.333335 23.92275,-1.08516 50.8,-22.74393 50.8,-50.800002 0,-28.056072 -26.87725,-49.714837 -50.8,-50.799999 -22.01963,-0.998829 -50.8,42.333333 -50.8,42.333333 0,0 -28.78038,-43.332162 -50.8,-42.333333 z m 0,16.933333 c 17.61567,-0.799042 40.6399,33.866666 40.6399,33.866666 0,0 -23.02423,34.665712 -40.6399,33.866662 C 602.11816,110.0099 584.19999,95.570689 584.2,76.866658 c -1e-5,-18.70403 17.91816,-33.143242 33.86666,-33.866666 z m 101.6,0 c 15.9485,0.723424 33.86667,15.162636 33.86667,33.866666 0,18.704031 -17.91817,33.143242 -33.86667,33.866662 -17.61567,0.79905 -40.6399,-33.866662 -40.6399,-33.866662 0,0 23.02423,-34.665708 40.6399,-33.866666 z"
       id="path4557"
       inkscape:connector-curvature="0"
       sodipodi:nodetypes="asacasacaacasaasaca" />
    <path
       style="opacity:1;fill:#ffffff;fill-opacity:1;stroke:none;stroke-width:4.23333311;stroke-linecap:round;stroke-linejoin:round;stroke-miterlimit:4;stroke-dasharray:none;stroke-dashoffset:0;stroke-opacity:1;paint-order:normal"
       d="m 355.6,-160.20001 a 50.799999,50.799999 0 0 0 -50.8,50.8 50.799999,50.799999 0 0 0 14.90141,35.898587 L 330.2,-84.00001 l 25.4,25.4 25.4,-25.4 10.49858,10.498587 A 50.799999,50.799999 0 0 0 406.4,-109.40001 a 50.799999,50.799999 0 0 0 -50.8,-50.8 z"
       id="path4526"
       inkscape:connector-curvature="0" />
    <path
       style="opacity:1;fill:#ffffff;fill-opacity:1;stroke:none;stroke-width:4.23333311;stroke-linecap:round;stroke-linejoin:round;stroke-miterlimit:4;stroke-dasharray:none;stroke-dashoffset:0;stroke-opacity:1;paint-order:normal"
       d="m -101.6,186.93332 a 50.799999,50.80001 0 0 0 -50.8,50.8 50.799999,50.80001 0 0 0 8.46667,28.02567 v -2.62567 L -127,280.06665 l 8.46667,-8.46666 16.93333,16.93333 16.933334,-16.93333 8.466666,8.46666 16.933333,-16.93333 c 0,0 -0.06648,1.21745 -0.152961,2.87115 a 50.799999,50.80001 0 0 0 8.619629,-28.27115 50.799999,50.80001 0 0 0 -50.800001,-50.8 z"
       id="path4531"
       inkscape:connector-curvature="0" />
    <rect
       style="opacity:1;fill:#f20000;fill-opacity:1;stroke:none;stroke-width:4.23333311;stroke-linecap:round;stroke-linejoin:round;stroke-miterlimit:4;stroke-dasharray:none;stroke-dashoffset:0;stroke-opacity:1;paint-order:normal"
       id="rect4528"
       width="50.799999"
       height="16.933332"
       x="203.2"
       y="-92.466675" />
    <rect
       style="opacity:1;fill:#f20000;fill-opacity:1;stroke:none;stroke-width:4.23333311;stroke-linecap:round;stroke-linejoin:round;stroke-miterlimit:4;stroke-dasharray:none;stroke-dashoffset:0;stroke-opacity:1;paint-order:normal"
       id="rect4530"
       width="50.799995"
       height="4.4652591"
       x="203.2"
       y="-79.998596" />
    <rect
       style="opacity:1;fill:#878787;fill-opacity:1;stroke:none;stroke-width:4.23333311;stroke-linecap:round;stroke-linejoin:round;stroke-miterlimit:4;stroke-dasharray:none;stroke-dashoffset:0;stroke-opacity:1;paint-order:normal"
       id="rect4529"
       width="50.799999"
       height="50.799999"
       x="203.2"
       y="-160.20001" />
    <path
       style="opacity:1;fill:#878787;fill-opacity:1;stroke:none;stroke-width:4.23333311;stroke-linecap:round;stroke-linejoin:round;stroke-miterlimit:4;stroke-dasharray:none;stroke-dashoffset:0;stroke-opacity:1;paint-order:normal"
       d="m 253.99999,-160.20001 50.80001,12.46351 -50.8,12.93649 50.8,12.34092 -50.80001,13.05908 v -50.8"
       id="path4532"
       inkscape:connector-curvature="0"
       sodipodi:nodetypes="cccccc" />
    <path
       sodipodi:type="spiral"
       style="fill:none;fill-rule:evenodd;stroke:#9700ff;stroke-width:7.09606361;stroke-linecap:round;stroke-miterlimit:4;stroke-dasharray:none;stroke-opacity:1"
       id="path4931"
       sodipodi:cx="228.59999"
       sodipodi:cy="119.19999"
       sodipodi:expansion="9.6899996"
       sodipodi:revolution="17.799999"
       sodipodi:radius="76.199997"
       sodipodi:argument="-31.415926"
       sodipodi:t0="0.74000001"
       d="m 230.53891,122.8343 c -2.06191,1.43082 -4.91173,0.70119 -6.29951,-1.30791 -1.70769,-2.47222 -0.83133,-5.88354 1.57865,-7.54086 2.9543,-2.03164 7.02441,-0.98263 8.99729,1.89854 2.40965,3.51904 1.15808,8.35989 -2.27529,10.70116 -4.17874,2.84954 -9.91878,1.36102 -12.68897,-2.71766 -3.36012,-4.94728 -1.59516,-11.73356 3.23555,-15.00181 5.84025,-3.95126 13.84073,-1.86467 17.68589,3.84013 4.63398,6.87515 2.17417,16.28123 -4.54402,20.79297 -8.07159,5.42065 -19.10089,2.5288 -24.38103,-5.36133 -6.32502,-9.4515 -2.93427,-22.35097 6.30796,-28.514823 11.03935,-7.3624 26.08861,-3.396907 33.26656,7.401653 8.54982,12.8624 3.92369,30.37747 -8.66226,38.71663 -14.95098,9.90618 -35.28832,4.52235 -44.95438,-10.11193 -11.45238,-17.33874 -5.20138,-40.899677 11.7753,-52.078909 20.063,-13.21159 47.29859,-5.970175 60.20003,13.679765 15.20935,23.165074 6.83903,54.581334 -15.85572,69.439184 -26.69059,17.47385 -62.85429,7.81925 -79.93048,-18.33684 -20.03614,-30.68993 -8.92325,-72.234795 21.16037,-91.821827 16.72364,-10.888535 37.59948,-14.275246 56.99193,-9.781047"
       transform="matrix(0.84040729,0.40325679,-0.40325679,0.84040729,-64.474548,-75.338806)" />
    <path
       transform="matrix(-0.03034794,0.93165415,-0.93165415,-0.03034794,195.46758,-92.651856)"
       d="m 230.53891,122.8343 c -2.06191,1.43082 -4.91173,0.70119 -6.29951,-1.30791 -1.70769,-2.47222 -0.83133,-5.88354 1.57865,-7.54086 2.9543,-2.03164 7.02441,-0.98263 8.99729,1.89854 2.40965,3.51904 1.15808,8.35989 -2.27529,10.70116 -4.17874,2.84954 -9.91878,1.36102 -12.68897,-2.71766 -3.36012,-4.94728 -1.59516,-11.73356 3.23555,-15.00181 5.84025,-3.95126 13.84073,-1.86467 17.68589,3.84013 4.63398,6.87515 2.17417,16.28123 -4.54402,20.79297 -8.07159,5.42065 -19.10089,2.5288 -24.38103,-5.36133 -6.32502,-9.4515 -2.93427,-22.35097 6.30796,-28.514823 11.03935,-7.3624 26.08861,-3.396907 33.26656,7.401653 8.54982,12.8624 3.92369,30.37747 -8.66226,38.71663 -14.95098,9.90618 -35.28832,4.52235 -44.95438,-10.11193 -11.45238,-17.33874 -5.20138,-40.899677 11.7753,-52.078909 20.063,-13.21159 47.29859,-5.970175 60.20003,13.679765 15.20935,23.165074 6.83903,54.581334 -15.85572,69.439184 -26.69059,17.47385 -62.85429,7.81925 -79.93048,-18.33684 -20.03614,-30.68993 -8.92325,-72.234795 21.16037,-91.821827 16.72364,-10.888535 37.59948,-14.275246 56.99193,-9.781047"
       sodipodi:t0="0.74000001"
       sodipodi:argument="-31.415926"
       sodipodi:radius="76.199997"
       sodipodi:revolution="17.799999"
       sodipodi:expansion="9.6899996"
       sodipodi:cy="119.19999"
       sodipodi:cx="228.59999"
       id="path4933"
       style="fill:none;fill-rule:evenodd;stroke:#9133d2;stroke-width:7.09606361;stroke-linecap:round;stroke-miterlimit:4;stroke-dasharray:none;stroke-opacity:1"
       sodipodi:type="spiral" />
    <path
       sodipodi:type="spiral"
       style="fill:none;fill-rule:evenodd;stroke:#6b00b5;stroke-width:7.09606361;stroke-linecap:round;stroke-miterlimit:4;stroke-dasharray:none;stroke-opacity:1"
       id="path4935"
       sodipodi:cx="228.59999"
       sodipodi:cy="119.19999"
       sodipodi:expansion="9.6899996"
       sodipodi:revolution="17.799999"
       sodipodi:radius="76.199997"
       sodipodi:argument="-31.415926"
       sodipodi:t0="0.74000001"
       d="m 230.53891,122.8343 c -2.06191,1.43082 -4.91173,0.70119 -6.29951,-1.30791 -1.70769,-2.47222 -0.83133,-5.88354 1.57865,-7.54086 2.9543,-2.03164 7.02441,-0.98263 8.99729,1.89854 2.40965,3.51904 1.15808,8.35989 -2.27529,10.70116 -4.17874,2.84954 -9.91878,1.36102 -12.68897,-2.71766 -3.36012,-4.94728 -1.59516,-11.73356 3.23555,-15.00181 5.84025,-3.95126 13.84073,-1.86467 17.68589,3.84013 4.63398,6.87515 2.17417,16.28123 -4.54402,20.79297 -8.07159,5.42065 -19.10089,2.5288 -24.38103,-5.36133 -6.32502,-9.4515 -2.93427,-22.35097 6.30796,-28.514823 11.03935,-7.3624 26.08861,-3.396907 33.26656,7.401653 8.54982,12.8624 3.92369,30.37747 -8.66226,38.71663 -14.95098,9.90618 -35.28832,4.52235 -44.95438,-10.11193 -11.45238,-17.33874 -5.20138,-40.899677 11.7753,-52.078909 20.063,-13.21159 47.29859,-5.970175 60.20003,13.679765 15.20935,23.165074 6.83903,54.581334 -15.85572,69.439184 -26.69059,17.47385 -62.85429,7.81925 -79.93048,-18.33684 -20.03614,-30.68993 -8.92325,-72.234795 21.16037,-91.821827 16.72364,-10.888535 37.59948,-14.275246 56.99193,-9.781047"
       transform="matrix(-0.82103855,0.44135717,-0.44135717,-0.82103855,319.24099,112.06675)" />
    <path
       transform="matrix(-0.77167769,-0.52289004,0.52289004,-0.77167769,193.78728,326.50862)"
       d="m 230.53891,122.8343 c -2.06191,1.43082 -4.91173,0.70119 -6.29951,-1.30791 -1.70769,-2.47222 -0.83133,-5.88354 1.57865,-7.54086 2.9543,-2.03164 7.02441,-0.98263 8.99729,1.89854 2.40965,3.51904 1.15808,8.35989 -2.27529,10.70116 -4.17874,2.84954 -9.91878,1.36102 -12.68897,-2.71766 -3.36012,-4.94728 -1.59516,-11.73356 3.23555,-15.00181 5.84025,-3.95126 13.84073,-1.86467 17.68589,3.84013 4.63398,6.87515 2.17417,16.28123 -4.54402,20.79297 -8.07159,5.42065 -19.10089,2.5288 -24.38103,-5.36133 -6.32502,-9.4515 -2.93427,-22.35097 6.30796,-28.514823 11.03935,-7.3624 26.08861,-3.396907 33.26656,7.401653 8.54982,12.8624 3.92369,30.37747 -8.66226,38.71663 -14.95098,9.90618 -35.28832,4.52235 -44.95438,-10.11193 -11.45238,-17.33874 -5.20138,-40.899677 11.7753,-52.078909 20.063,-13.21159 47.29859,-5.970175 60.20003,13.679765 15.20935,23.165074 6.83903,54.581334 -15.85572,69.439184 -26.69059,17.47385 -62.85429,7.81925 -79.93048,-18.33684 -20.03614,-30.68993 -8.92325,-72.234795 21.16037,-91.821827 16.72364,-10.888535 37.59948,-14.275246 56.99193,-9.781047"
       sodipodi:t0="0.74000001"
       sodipodi:argument="-31.415926"
       sodipodi:radius="76.199997"
       sodipodi:revolution="17.799999"
       sodipodi:expansion="9.6899996"
       sodipodi:cy="119.19999"
       sodipodi:cx="228.59999"
       id="path4937"
       style="fill:none;fill-rule:evenodd;stroke:#8c22c3;stroke-width:7.09606361;stroke-linecap:round;stroke-miterlimit:4;stroke-dasharray:none;stroke-opacity:1"
       sodipodi:type="spiral" />
    <path
       sodipodi:type="spiral"
       style="fill:none;fill-rule:evenodd;stroke:#7600b2;stroke-width:7.09606361;stroke-linecap:round;stroke-miterlimit:4;stroke-dasharray:none;stroke-opacity:1"
       id="path4939"
       sodipodi:cx="228.59999"
       sodipodi:cy="119.19999"
       sodipodi:expansion="9.6899996"
       sodipodi:revolution="17.799999"
       sodipodi:radius="76.199997"
       sodipodi:argument="-31.415926"
       sodipodi:t0="0.74000001"
       d="m 230.53891,122.8343 c -2.06191,1.43082 -4.91173,0.70119 -6.29951,-1.30791 -1.70769,-2.47222 -0.83133,-5.88354 1.57865,-7.54086 2.9543,-2.03164 7.02441,-0.98263 8.99729,1.89854 2.40965,3.51904 1.15808,8.35989 -2.27529,10.70116 -4.17874,2.84954 -9.91878,1.36102 -12.68897,-2.71766 -3.36012,-4.94728 -1.59516,-11.73356 3.23555,-15.00181 5.84025,-3.95126 13.84073,-1.86467 17.68589,3.84013 4.63398,6.87515 2.17417,16.28123 -4.54402,20.79297 -8.07159,5.42065 -19.10089,2.5288 -24.38103,-5.36133 -6.32502,-9.4515 -2.93427,-22.35097 6.30796,-28.514823 11.03935,-7.3624 26.08861,-3.396907 33.26656,7.401653 8.54982,12.8624 3.92369,30.37747 -8.66226,38.71663 -14.95098,9.90618 -35.28832,4.52235 -44.95438,-10.11193 -11.45238,-17.33874 -5.20138,-40.899677 11.7753,-52.078909 20.063,-13.21159 47.29859,-5.970175 60.20003,13.679765 15.20935,23.165074 6.83903,54.581334 -15.85572,69.439184 -26.69059,17.47385 -62.85429,7.81925 -79.93048,-18.33684 -20.03614,-30.68993 -8.92325,-72.234795 21.16037,-91.821827 16.72364,-10.888535 37.59948,-14.275246 56.99193,-9.781047"
       transform="matrix(-0.04758026,-0.93093317,0.93093317,-0.04758026,-21.140386,332.44364)" />
    <path
       transform="matrix(0.68849862,-0.62838691,0.62838691,0.68849862,-150.98988,177.66627)"
       d="m 230.53891,122.8343 c -2.06191,1.43082 -4.91173,0.70119 -6.29951,-1.30791 -1.70769,-2.47222 -0.83133,-5.88354 1.57865,-7.54086 2.9543,-2.03164 7.02441,-0.98263 8.99729,1.89854 2.40965,3.51904 1.15808,8.35989 -2.27529,10.70116 -4.17874,2.84954 -9.91878,1.36102 -12.68897,-2.71766 -3.36012,-4.94728 -1.59516,-11.73356 3.23555,-15.00181 5.84025,-3.95126 13.84073,-1.86467 17.68589,3.84013 4.63398,6.87515 2.17417,16.28123 -4.54402,20.79297 -8.07159,5.42065 -19.10089,2.5288 -24.38103,-5.36133 -6.32502,-9.4515 -2.93427,-22.35097 6.30796,-28.514823 11.03935,-7.3624 26.08861,-3.396907 33.26656,7.401653 8.54982,12.8624 3.92369,30.37747 -8.66226,38.71663 -14.95098,9.90618 -35.28832,4.52235 -44.95438,-10.11193 -11.45238,-17.33874 -5.20138,-40.899677 11.7753,-52.078909 20.063,-13.21159 47.29859,-5.970175 60.20003,13.679765 15.20935,23.165074 6.83903,54.581334 -15.85572,69.439184 -26.69059,17.47385 -62.85429,7.81925 -79.93048,-18.33684 -20.03614,-30.68993 -8.92325,-72.234795 21.16037,-91.821827 16.72364,-10.888535 37.59948,-14.275246 56.99193,-9.781047"
       sodipodi:t0="0.74000001"
       sodipodi:argument="-31.415926"
       sodipodi:radius="76.199997"
       sodipodi:revolution="17.799999"
       sodipodi:expansion="9.6899996"
       sodipodi:cy="119.19999"
       sodipodi:cx="228.59999"
       id="path4943"
       style="fill:none;fill-rule:evenodd;stroke:#7600b2;stroke-width:7.09606361;stroke-linecap:round;stroke-miterlimit:4;stroke-dasharray:none;stroke-opacity:1"
       sodipodi:type="spiral" />
    <circle
       style="opacity:1;fill:#540071;fill-opacity:1;stroke:none;stroke-width:4.23333311;stroke-linecap:round;stroke-linejoin:round;stroke-miterlimit:4;stroke-dasharray:none;stroke-dashoffset:0;stroke-opacity:1;paint-order:normal"
       id="path4534"
       cx="-118.53333"
       cy="-24.733341"
       r="50.799999" />
    <path
       sodipodi:nodetypes="cc"
       inkscape:connector-curvature="0"
       id="path4957"
       d="m 203.20066,-33.200007 50.79869,-1e-5"
       style="opacity:1;fill:none;fill-opacity:1;stroke:#ffffff;stroke-width:4.23333311;stroke-linecap:round;stroke-linejoin:round;stroke-miterlimit:4;stroke-dasharray:none;stroke-dashoffset:0;stroke-opacity:1;paint-order:normal"
       inkscape:export-xdpi="96"
       inkscape:export-ydpi="96" />
    <path
       style="opacity:1;fill:#c100ff;fill-opacity:0;stroke:none;stroke-width:8.46666667;stroke-linecap:round;stroke-linejoin:miter;stroke-miterlimit:4;stroke-dasharray:none;stroke-dashoffset:0;stroke-opacity:1;paint-order:normal"
       d="m 61.413479,-67.066669 131.177221,-10e-6"
       id="path4959"
       inkscape:connector-curvature="0"
       sodipodi:nodetypes="cc" />
    <path
       sodipodi:nodetypes="cc"
       inkscape:connector-curvature="0"
       id="path4961"
       d="m -48.655277,-251.21645 131.177221,-1e-5"
       style="opacity:1;fill:none;fill-opacity:1;stroke:#ffffff;stroke-width:4.23333311;stroke-linecap:round;stroke-linejoin:round;stroke-miterlimit:4;stroke-dasharray:none;stroke-dashoffset:0;stroke-opacity:1;paint-order:normal" />
    <path
       sodipodi:nodetypes="cc"
       inkscape:connector-curvature="0"
       id="path4963"
       d="m -48.655277,-251.21645 131.177221,-1e-5"
       style="opacity:1;fill:#c100ff;fill-opacity:0;stroke:none;stroke-width:6.61458302;stroke-linecap:round;stroke-linejoin:miter;stroke-miterlimit:4;stroke-dasharray:none;stroke-dashoffset:0;stroke-opacity:1;paint-order:normal" />
    <path
       style="opacity:1;fill:#c100ff;fill-opacity:0;stroke:none;stroke-width:6.61458302;stroke-linecap:round;stroke-linejoin:miter;stroke-miterlimit:4;stroke-dasharray:none;stroke-dashoffset:0;stroke-opacity:1;paint-order:normal"
       d="m 61.411388,-67.066664 131.177222,-1e-5"
       id="path4967"
       inkscape:connector-curvature="0"
       sodipodi:nodetypes="cc" />
    <path
       style="opacity:1;fill:none;fill-opacity:1;stroke:#ffffff;stroke-width:4.23333311;stroke-linecap:round;stroke-linejoin:round;stroke-miterlimit:4;stroke-dasharray:none;stroke-dashoffset:0;stroke-opacity:1;paint-order:normal"
       d="m 61.411388,-71.302568 131.177222,-1e-5"
       id="path4978"
       inkscape:connector-curvature="0"
       sodipodi:nodetypes="cc" />
    <path
       style="color:#000000;font-style:normal;font-variant:normal;font-weight:normal;font-stretch:normal;font-size:medium;line-height:normal;font-family:sans-serif;font-variant-ligatures:normal;font-variant-position:normal;font-variant-caps:normal;font-variant-numeric:normal;font-variant-alternates:normal;font-feature-settings:normal;text-indent:0;text-align:start;text-decoration:none;text-decoration-line:none;text-decoration-style:solid;text-decoration-color:#000000;letter-spacing:normal;word-spacing:normal;text-transform:none;writing-mode:lr-tb;direction:ltr;text-orientation:mixed;dominant-baseline:auto;baseline-shift:baseline;text-anchor:start;white-space:normal;shape-padding:0;clip-rule:nonzero;display:inline;overflow:visible;visibility:visible;opacity:1;isolation:auto;mix-blend-mode:normal;color-interpolation:sRGB;color-interpolation-filters:linearRGB;solid-color:#000000;solid-opacity:1;vector-effect:none;fill:#ffffff;fill-opacity:1;fill-rule:nonzero;stroke:none;stroke-width:8.46666622;stroke-linecap:round;stroke-linejoin:round;stroke-miterlimit:4;stroke-dasharray:none;stroke-dashoffset:0;stroke-opacity:1;paint-order:normal;color-rendering:auto;image-rendering:auto;shape-rendering:auto;text-rendering:auto;enable-background:accumulate"
       d="m 61.411756,-58.599194 a 4.2337563,4.2337563 0 0 0 -4.291211,4.233333 4.2337563,4.2337563 0 0 0 4.291211,4.233333 h 2.088245 v -2.117182 h -2.089277 -5.18e-4 a 2.1171873,2.1171873 0 0 1 -2.119249,-2.116151 2.1171872,2.1171872 0 0 1 2.119249,-2.116151 h 5.18e-4 2.089277 v -2.117182 z m 10.554912,0 v 2.117182 h 8.466666 v -2.117182 z m 16.933333,0 v 2.117182 h 8.466667 v -2.117182 z m 16.933329,0 v 2.117182 H 114.3 v -2.117182 z m 16.93334,0 v 2.117182 h 8.46666 v -2.117182 z m 16.93333,0 v 2.117182 h 8.46667 v -2.117182 z m 16.93333,0 v 2.117182 H 165.1 v -2.117182 z m 16.93334,0 v 2.117182 h 8.46666 v -2.117182 z m 16.93333,0 v 2.117182 h 2.08618 a 2.1171872,2.1171872 0 0 1 2.11873,2.116151 2.1171873,2.1171873 0 0 1 -2.11873,2.116151 H 190.5 v 2.117182 h 2.08824 a 4.2337563,4.2337563 0 0 0 4.29122,-4.233333 4.2337563,4.2337563 0 0 0 -4.29122,-4.233333 z M 71.966668,-52.24971 v 2.117182 h 8.466666 v -2.117182 z m 16.933333,0 v 2.117182 h 8.466667 v -2.117182 z m 16.933329,0 v 2.117182 H 114.3 v -2.117182 z m 16.93334,0 v 2.117182 h 8.46666 v -2.117182 z m 16.93333,0 v 2.117182 h 8.46667 v -2.117182 z m 16.93333,0 v 2.117182 H 165.1 v -2.117182 z m 16.93334,0 v 2.117182 h 8.46666 v -2.117182 z"
       id="path4980"
       inkscape:connector-curvature="0" />
    <path
       style="color:#000000;font-style:normal;font-variant:normal;font-weight:normal;font-stretch:normal;font-size:medium;line-height:normal;font-family:sans-serif;font-variant-ligatures:normal;font-variant-position:normal;font-variant-caps:normal;font-variant-numeric:normal;font-variant-alternates:normal;font-feature-settings:normal;text-indent:0;text-align:start;text-decoration:none;text-decoration-line:none;text-decoration-style:solid;text-decoration-color:#000000;letter-spacing:normal;word-spacing:normal;text-transform:none;writing-mode:lr-tb;direction:ltr;text-orientation:mixed;dominant-baseline:auto;baseline-shift:baseline;text-anchor:start;white-space:normal;shape-padding:0;clip-rule:nonzero;display:inline;overflow:visible;visibility:visible;opacity:1;isolation:auto;mix-blend-mode:normal;color-interpolation:sRGB;color-interpolation-filters:linearRGB;solid-color:#000000;solid-opacity:1;vector-effect:none;fill:#ffffff;fill-opacity:1;fill-rule:nonzero;stroke:none;stroke-width:8.46666622;stroke-linecap:round;stroke-linejoin:round;stroke-miterlimit:4;stroke-dasharray:none;stroke-dashoffset:0;stroke-opacity:1;paint-order:normal;color-rendering:auto;image-rendering:auto;shape-rendering:auto;text-rendering:auto;enable-background:accumulate"
       d="m -69.821324,-287.80004 a 4.2337563,4.2337563 0 1 0 0,8.46667 H 61.354657 a 4.2337563,4.2337563 0 1 0 0,-8.46667 z m -0.0015,2.11719 H 61.352587 a 2.1171875,2.1171875 0 1 1 0,4.23437 H -69.822872 a 2.1171875,2.1171875 0 1 1 0,-4.23437 z"
       id="path5006"
       inkscape:connector-curvature="0" />
    <rect
       y="-290.83331"
       x="-12.7"
       height="7.2665954"
       width="8.4666662"
       id="rect5008"
       style="opacity:1;fill:#000000;fill-opacity:1;stroke:none;stroke-width:8.46666622;stroke-linecap:round;stroke-linejoin:miter;stroke-miterlimit:4;stroke-dasharray:none;stroke-dashoffset:0;stroke-opacity:1;paint-order:normal" />
    <rect
       y="-289.03793"
       x="-29.633335"
       height="4.3939734"
       width="8.4666662"
       id="rect5010"
       style="opacity:1;fill:#000000;fill-opacity:1;stroke:none;stroke-width:8.46666622;stroke-linecap:round;stroke-linejoin:miter;stroke-miterlimit:4;stroke-dasharray:none;stroke-dashoffset:0;stroke-opacity:1;paint-order:normal" />
    <rect
       y="-289.32138"
       x="-46.566669"
       height="4.2049851"
       width="8.4666662"
       id="rect5012"
       style="opacity:1;fill:#000000;fill-opacity:1;stroke:none;stroke-width:8.46666622;stroke-linecap:round;stroke-linejoin:miter;stroke-miterlimit:4;stroke-dasharray:none;stroke-dashoffset:0;stroke-opacity:1;paint-order:normal" />
    <rect
       y="-288.61267"
       x="-63.500004"
       height="4.2522321"
       width="8.4666662"
       id="rect5014"
       style="opacity:1;fill:#000000;fill-opacity:1;stroke:none;stroke-width:8.46666622;stroke-linecap:round;stroke-linejoin:miter;stroke-miterlimit:4;stroke-dasharray:none;stroke-dashoffset:0;stroke-opacity:1;paint-order:normal" />
    <rect
       y="-289.13242"
       x="-77.466225"
       height="5.5657024"
       width="5.4995532"
       id="rect5016"
       style="opacity:1;fill:#000000;fill-opacity:1;stroke:none;stroke-width:8.46666622;stroke-linecap:round;stroke-linejoin:miter;stroke-miterlimit:4;stroke-dasharray:none;stroke-dashoffset:0;stroke-opacity:1;paint-order:normal" />
    <rect
       y="-289.89734"
       x="4.2333264"
       height="6.3306198"
       width="8.4666662"
       id="rect5018"
       style="opacity:1;fill:#000000;fill-opacity:1;stroke:none;stroke-width:8.46666622;stroke-linecap:round;stroke-linejoin:miter;stroke-miterlimit:4;stroke-dasharray:none;stroke-dashoffset:0;stroke-opacity:1;paint-order:normal" />
    <rect
       y="-288.76144"
       x="21.16666"
       height="5.1947246"
       width="8.4666662"
       id="rect5020"
       style="opacity:1;fill:#000000;fill-opacity:1;stroke:none;stroke-width:8.46666622;stroke-linecap:round;stroke-linejoin:miter;stroke-miterlimit:4;stroke-dasharray:none;stroke-dashoffset:0;stroke-opacity:1;paint-order:normal" />
    <rect
       y="-288.76144"
       x="38.099995"
       height="4.1426778"
       width="8.4666662"
       id="rect5022"
       style="opacity:1;fill:#000000;fill-opacity:1;stroke:none;stroke-width:8.46666622;stroke-linecap:round;stroke-linejoin:miter;stroke-miterlimit:4;stroke-dasharray:none;stroke-dashoffset:0;stroke-opacity:1;paint-order:normal" />
    <rect
       y="-289.69937"
       x="55.033329"
       height="4.6774554"
       width="8.4666662"
       id="rect5024"
       style="opacity:1;fill:#000000;fill-opacity:1;stroke:none;stroke-width:8.46666622;stroke-linecap:round;stroke-linejoin:miter;stroke-miterlimit:4;stroke-dasharray:none;stroke-dashoffset:0;stroke-opacity:1;paint-order:normal" />
    <path
       style="opacity:1;fill:#ff252f;fill-opacity:1;stroke:none;stroke-width:31.99999809;stroke-linecap:round;stroke-linejoin:miter;stroke-miterlimit:4;stroke-dasharray:none;stroke-dashoffset:0;stroke-opacity:1;paint-order:normal"
       d="M 768 768 L 576 960 L 768 1152 L 960 960 L 768 768 z M 768 816 L 912 960 L 768 1104 L 624 960 L 768 816 z "
       transform="matrix(0.26458333,0,0,0.26458333,0,-211.00001)"
       id="path5040" />
    <rect
       style="opacity:1;fill:#ff252f;fill-opacity:1;stroke:none;stroke-width:8.46666622;stroke-linecap:round;stroke-linejoin:miter;stroke-miterlimit:4;stroke-dasharray:none;stroke-dashoffset:0;stroke-opacity:1;paint-order:normal"
       id="rect5044"
       width="8.4666662"
       height="33.866669"
       x="198.96669"
       y="17.599995" />
    <rect
       style="opacity:1;fill:#ff252f;fill-opacity:1;stroke:none;stroke-width:8.46666622;stroke-linecap:round;stroke-linejoin:miter;stroke-miterlimit:4;stroke-dasharray:none;stroke-dashoffset:0;stroke-opacity:1;paint-order:normal"
       id="rect5052"
       width="8.4666662"
       height="8.4666662"
       x="198.96669"
       y="59.933331" />
  </g>
  <g
     inkscape:groupmode="layer"
     id="layer2"
     inkscape:label="Layer 2"
     sodipodi:insensitive="true">
    <circle
       transform="translate(0,211.00001)"
       style="opacity:1;fill:url(#radialGradient4955);fill-opacity:1;stroke:none;stroke-width:6.61458302;stroke-linecap:round;stroke-linejoin:miter;stroke-miterlimit:4;stroke-dasharray:none;stroke-dashoffset:0;stroke-opacity:1;paint-order:normal"
       id="path4947"
       cx="75.316788"
       cy="115.87375"
       r="71.029701" />
  </g>
</svg>
